<mxfile host="app.diagrams.net" modified="2021-05-14T07:37:12.807Z" agent="5.0 (Windows NT 10.0; Win64; x64) AppleWebKit/537.36 (KHTML, like Gecko) Chrome/90.0.4430.212 Safari/537.36" etag="3qn-m9J2-5bjAeE_wJcf" version="14.6.13" type="github">
  <diagram id="MsZUe_BFRRnNckxwp380" name="Page-1">
    <mxGraphModel dx="1029" dy="551" grid="1" gridSize="10" guides="1" tooltips="1" connect="1" arrows="1" fold="1" page="1" pageScale="1" pageWidth="1169" pageHeight="827" math="0" shadow="0">
      <root>
        <mxCell id="0" />
        <mxCell id="1" parent="0" />
        <mxCell id="PPc5Tln8-h5H9LImuYgE-6" value="Onboard Computer" style="rounded=0;whiteSpace=wrap;html=1;fillColor=#e1d5e7;strokeColor=#9673a6;fontStyle=1;horizontal=1;verticalAlign=top;" parent="1" vertex="1">
          <mxGeometry x="630" y="291" width="240" height="270" as="geometry" />
        </mxCell>
        <mxCell id="PPc5Tln8-h5H9LImuYgE-38" value="Telemetry Radio" style="rounded=0;whiteSpace=wrap;html=1;fillColor=#ffe6cc;strokeColor=#d79b00;" parent="1" vertex="1">
          <mxGeometry x="765" y="160" width="110" height="60" as="geometry" />
        </mxCell>
        <mxCell id="PPc5Tln8-h5H9LImuYgE-76" value="MAVLink" style="edgeStyle=orthogonalEdgeStyle;rounded=0;sketch=0;jumpStyle=arc;orthogonalLoop=1;jettySize=auto;html=1;exitX=1;exitY=0.5;exitDx=0;exitDy=0;shadow=0;dashed=1;startArrow=classic;startFill=1;strokeColor=#33001A;" parent="1" source="PPc5Tln8-h5H9LImuYgE-44" edge="1">
          <mxGeometry relative="1" as="geometry">
            <mxPoint x="760" y="190.58823529411757" as="targetPoint" />
          </mxGeometry>
        </mxCell>
        <mxCell id="PPc5Tln8-h5H9LImuYgE-44" value="GCS" style="rounded=0;whiteSpace=wrap;html=1;fillColor=#d5e8d4;strokeColor=#82b366;" parent="1" vertex="1">
          <mxGeometry x="560" y="160" width="110" height="60" as="geometry" />
        </mxCell>
        <mxCell id="PPc5Tln8-h5H9LImuYgE-48" value="Flight Controller" style="rounded=0;whiteSpace=wrap;html=1;fillColor=#e1d5e7;strokeColor=#9673a6;fontStyle=1;horizontal=1;verticalAlign=top;" parent="1" vertex="1">
          <mxGeometry x="960" y="330" width="120" height="100" as="geometry" />
        </mxCell>
        <mxCell id="PPc5Tln8-h5H9LImuYgE-56" value="" style="group" parent="1" vertex="1" connectable="0">
          <mxGeometry x="645" y="330" width="210" height="100" as="geometry" />
        </mxCell>
        <mxCell id="PPc5Tln8-h5H9LImuYgE-22" value="MAVLink Router" style="rounded=0;whiteSpace=wrap;html=1;fillColor=#f8cecc;strokeColor=#b85450;fontStyle=1;dashed=1;verticalAlign=top;" parent="PPc5Tln8-h5H9LImuYgE-56" vertex="1">
          <mxGeometry width="210" height="100" as="geometry" />
        </mxCell>
        <mxCell id="PPc5Tln8-h5H9LImuYgE-52" value="TCP" style="rounded=1;whiteSpace=wrap;html=1;fillColor=#dae8fc;strokeColor=#6c8ebf;" parent="PPc5Tln8-h5H9LImuYgE-56" vertex="1">
          <mxGeometry x="5" y="30" width="60" height="60" as="geometry" />
        </mxCell>
        <mxCell id="PPc5Tln8-h5H9LImuYgE-53" value="UDP" style="rounded=1;whiteSpace=wrap;html=1;fillColor=#dae8fc;strokeColor=#6c8ebf;" parent="PPc5Tln8-h5H9LImuYgE-56" vertex="1">
          <mxGeometry x="75" y="30" width="60" height="60" as="geometry" />
        </mxCell>
        <mxCell id="PPc5Tln8-h5H9LImuYgE-54" value="UART" style="rounded=1;whiteSpace=wrap;html=1;fillColor=#dae8fc;strokeColor=#6c8ebf;" parent="PPc5Tln8-h5H9LImuYgE-56" vertex="1">
          <mxGeometry x="145" y="30" width="60" height="60" as="geometry" />
        </mxCell>
        <mxCell id="PPc5Tln8-h5H9LImuYgE-57" value="" style="group;fillColor=#d5e8d4;strokeColor=#82b366;container=0;" parent="1" vertex="1" connectable="0">
          <mxGeometry x="645" y="450" width="210" height="100" as="geometry" />
        </mxCell>
        <mxCell id="PPc5Tln8-h5H9LImuYgE-58" value="MAVROS" style="rounded=0;whiteSpace=wrap;html=1;fillColor=#d5e8d4;strokeColor=#82b366;fontStyle=1;dashed=1;verticalAlign=top;" parent="1" vertex="1">
          <mxGeometry x="645" y="450" width="210" height="100" as="geometry" />
        </mxCell>
        <mxCell id="PPc5Tln8-h5H9LImuYgE-59" value="TCP" style="rounded=1;whiteSpace=wrap;html=1;fillColor=#dae8fc;strokeColor=#6c8ebf;" parent="1" vertex="1">
          <mxGeometry x="650" y="480" width="60" height="60" as="geometry" />
        </mxCell>
        <mxCell id="PPc5Tln8-h5H9LImuYgE-60" value="UDP" style="rounded=1;whiteSpace=wrap;html=1;fillColor=#dae8fc;strokeColor=#6c8ebf;" parent="1" vertex="1">
          <mxGeometry x="720" y="480" width="60" height="60" as="geometry" />
        </mxCell>
        <mxCell id="PPc5Tln8-h5H9LImuYgE-61" value="UART" style="rounded=1;whiteSpace=wrap;html=1;fillColor=#dae8fc;strokeColor=#6c8ebf;" parent="1" vertex="1">
          <mxGeometry x="790" y="480" width="60" height="60" as="geometry" />
        </mxCell>
        <mxCell id="PPc5Tln8-h5H9LImuYgE-62" value="MAVLink" style="edgeStyle=orthogonalEdgeStyle;rounded=0;orthogonalLoop=1;jettySize=auto;html=1;exitX=0.5;exitY=1;exitDx=0;exitDy=0;entryX=0.5;entryY=0;entryDx=0;entryDy=0;dashed=1;startArrow=classic;startFill=1;" parent="1" source="PPc5Tln8-h5H9LImuYgE-52" target="PPc5Tln8-h5H9LImuYgE-59" edge="1">
          <mxGeometry relative="1" as="geometry" />
        </mxCell>
        <mxCell id="PPc5Tln8-h5H9LImuYgE-64" value="MAVLink" style="edgeStyle=orthogonalEdgeStyle;rounded=0;orthogonalLoop=1;jettySize=auto;html=1;exitX=0;exitY=0.5;exitDx=0;exitDy=0;entryX=1;entryY=0.5;entryDx=0;entryDy=0;dashed=1;startArrow=classic;startFill=1;" parent="1" source="PPc5Tln8-h5H9LImuYgE-63" target="PPc5Tln8-h5H9LImuYgE-54" edge="1">
          <mxGeometry relative="1" as="geometry" />
        </mxCell>
        <mxCell id="PPc5Tln8-h5H9LImuYgE-63" value="UART" style="rounded=1;whiteSpace=wrap;html=1;fillColor=#dae8fc;strokeColor=#6c8ebf;" parent="1" vertex="1">
          <mxGeometry x="990" y="360" width="60" height="60" as="geometry" />
        </mxCell>
        <mxCell id="PPc5Tln8-h5H9LImuYgE-75" style="edgeStyle=orthogonalEdgeStyle;rounded=0;sketch=0;jumpStyle=arc;orthogonalLoop=1;jettySize=auto;html=1;exitX=0.5;exitY=1;exitDx=0;exitDy=0;shadow=0;dashed=1;startArrow=classic;startFill=1;strokeColor=#33001A;" parent="1" source="PPc5Tln8-h5H9LImuYgE-38" target="PPc5Tln8-h5H9LImuYgE-54" edge="1">
          <mxGeometry relative="1" as="geometry" />
        </mxCell>
        <mxCell id="PPc5Tln8-h5H9LImuYgE-77" value="MAVLink" style="edgeLabel;html=1;align=center;verticalAlign=middle;resizable=0;points=[];" parent="PPc5Tln8-h5H9LImuYgE-75" vertex="1" connectable="0">
          <mxGeometry x="-0.3479" y="-2" relative="1" as="geometry">
            <mxPoint as="offset" />
          </mxGeometry>
        </mxCell>
      </root>
    </mxGraphModel>
  </diagram>
</mxfile>
